<svg width="120" height="120" viewBox="0 0 120 120" xmlns="http://www.w3.org/2000/svg">
  <defs>
    <filter id="irregular-shadow" x="-50%" y="-50%" width="200%" height="200%">
      <feGaussianBlur in="SourceAlpha" stdDeviation="4" result="blur" />
      <feColorMatrix in="blur" type="matrix" values="0 0 0 0 0.7   0 0 0 0 0.7   0 0 0 0 0.7  0 0 0 0.5 0" result="gray-shadow" />
      <feTurbulence type="fractalNoise" baseFrequency="0.04" numOctaves="2" result="noise" />
      <feDisplacementMap in="gray-shadow" in2="noise" scale="7" xChannelSelector="R" yChannelSelector="G" />
      <feMerge>
        <feMergeNode in="gray-shadow" />
        <feMergeNode in="SourceGraphic" />
      </feMerge>
    </filter>
  </defs>

  <!-- Petals with varied shapes and spacing -->
  <g fill="white" filter="url(#irregular-shadow)" transform="translate(10 10)">
    <ellipse cx="50" cy="28" rx="12" ry="26" transform="rotate(0 50 50)" />
    <ellipse cx="50" cy="27" rx="11" ry="25" transform="rotate(30 50 50)" />
    <ellipse cx="50" cy="29" rx="12" ry="27" transform="rotate(60 50 50)" />
    <ellipse cx="50" cy="28" rx="11.5" ry="26" transform="rotate(90 50 50)" />
    <ellipse cx="50" cy="27" rx="12" ry="25.5" transform="rotate(120 50 50)" />
    <ellipse cx="50" cy="29" rx="11" ry="26.5" transform="rotate(150 50 50)" />
    <ellipse cx="50" cy="28" rx="12" ry="25" transform="rotate(180 50 50)" />
    <ellipse cx="50" cy="27" rx="11.5" ry="26" transform="rotate(210 50 50)" />
    <ellipse cx="50" cy="29" rx="12" ry="25.5" transform="rotate(240 50 50)" />
    <ellipse cx="50" cy="28" rx="11" ry="27" transform="rotate(270 50 50)" />
    <ellipse cx="50" cy="27" rx="12" ry="26" transform="rotate(300 50 50)" />
    <ellipse cx="50" cy="29" rx="11.5" ry="25" transform="rotate(330 50 50)" />
  </g>
  
  <!-- Lines between petals -->
  <g stroke="#FFE082" stroke-width="0.5" opacity="0.3" transform="translate(10 10)">
    <line x1="50" y1="50" x2="50" y2="2" />
    <line x1="50" y1="50" x2="98" y2="50" />
    <line x1="50" y1="50" x2="50" y2="98" />
    <line x1="50" y1="50" x2="2" y2="50" />
    <line x1="50" y1="50" x2="85" y2="15" />
    <line x1="50" y1="50" x2="85" y2="85" />
    <line x1="50" y1="50" x2="15" y2="85" />
    <line x1="50" y1="50" x2="15" y2="15" />
    <line x1="50" y1="50" x2="93" y2="33" />
    <line x1="50" y1="50" x2="93" y2="67" />
    <line x1="50" y1="50" x2="33" y2="93" />
    <line x1="50" y1="50" x2="33" y2="7" />
  </g>
  
  <!-- Center of the flower -->
  <g transform="translate(10 10)">
    <circle cx="50" cy="50" r="16" fill="#FFD54F" />
    <circle cx="50" cy="50" r="12" fill="#FFC107" />
  </g>
</svg>