<svg version="1.1" id="Layer_1" xmlns="http://www.w3.org/2000/svg" xmlns:xlink="http://www.w3.org/1999/xlink" x="0px" y="0px"
	 width="100%" viewBox="0 0 512 512" enable-background="new 0 0 512 512" xml:space="preserve">
<path fill="#FFB743" opacity="1.000000" stroke="none" 
	d="
M203.275574,140.225983 
	C211.066315,131.108200 218.457962,122.115479 226.183594,113.419487 
	C230.636032,108.407799 235.219574,103.354919 240.464447,99.238358 
	C250.763763,91.154694 269.654663,93.279114 278.051849,102.647087 
	C288.680695,114.504707 298.914124,126.716553 309.330597,138.764832 
	C315.994446,146.472626 322.697998,154.146149 329.350555,161.863632 
	C333.098724,166.211761 336.584381,170.802979 340.527679,174.962982 
	C352.086060,187.156570 369.010315,189.258560 383.400787,178.066177 
	C404.774811,161.442169 425.889465,144.476028 447.517334,128.190475 
	C459.542480,119.135696 475.118103,120.007881 486.959717,130.306198 
	C498.839294,140.637527 498.260529,153.414673 495.553284,166.912674 
	C492.044708,184.406265 488.493774,201.891388 485.007843,219.389465 
	C481.203918,238.483902 477.481018,257.594452 473.671661,276.687775 
	C470.149200,294.343170 466.565765,311.986389 462.997131,329.632507 
	C459.107117,348.867645 455.208282,368.100983 451.301636,387.332733 
	C450.462189,391.465179 450.290436,395.918365 448.569336,399.651276 
	C443.755493,410.091797 436.285339,417.739899 424.080933,418.968994 
	C418.682495,419.512695 413.245117,419.953979 407.825134,419.956970 
	C304.171906,420.014313 200.518616,420.042969 96.865448,419.948181 
	C82.772362,419.935303 71.645462,413.948364 66.125404,400.600098 
	C63.383816,393.970581 62.498074,386.543274 61.027584,379.424255 
	C57.056271,360.198120 53.198128,340.948486 49.339691,321.699219 
	C45.862865,304.353821 42.437035,286.998199 39.003464,269.644165 
	C35.223194,250.537842 31.511845,231.417740 27.673584,212.323105 
	C24.189127,194.988556 20.146133,177.753128 17.179724,160.332596 
	C15.431316,150.064911 17.357803,140.183197 24.628651,131.812241 
	C33.952633,121.077507 55.065289,119.088028 66.615028,128.123596 
	C87.966774,144.827469 109.362381,161.475357 130.696335,178.201874 
	C145.425949,189.750381 165.185699,186.586670 175.614929,172.124405 
	C181.736755,163.635239 189.308273,156.191681 196.224960,148.275406 
	C198.493256,145.679321 200.752930,143.075684 203.275574,140.225983 
z"/>
</svg>