<svg version="1.1" id="Layer_1" xmlns="http://www.w3.org/2000/svg" xmlns:xlink="http://www.w3.org/1999/xlink" x="0px" y="0px"
	 width="100%" viewBox="0 0 512 512" enable-background="new 0 0 512 512" xml:space="preserve">
<path fill="#FFC107" opacity="1.000000" stroke="none" 
	d="
M263.536804,1.000002 
	C264.671234,1.668090 265.283691,2.411019 266.023376,2.991926 
	C270.334656,6.377623 273.081177,10.330683 273.069122,16.253422 
	C272.953522,72.917587 273.000000,129.582077 273.000000,186.246475 
	C273.000000,188.239975 273.000000,190.233475 273.000000,193.000000 
	C274.912872,193.000000 276.659637,193.000000 278.406433,193.000000 
	C314.071686,193.000000 349.738647,193.199371 385.401184,192.889084 
	C397.468475,192.784119 404.432953,203.942673 400.029907,215.323105 
	C394.505981,229.600586 387.985352,243.495346 381.799683,257.513245 
	C371.468445,280.925598 361.099243,304.321350 350.673889,327.691895 
	C343.300049,344.221771 335.724792,360.661987 328.387543,377.207886 
	C318.479156,399.551788 308.765350,421.981964 298.865784,444.329803 
	C293.053162,457.451447 287.084351,470.504547 281.104004,483.550995 
	C277.645721,491.095398 274.318176,498.726868 270.321838,505.983276 
	C268.876709,508.607300 265.653870,510.252319 263.121094,512.671997 
	C258.643097,513.000000 254.286194,513.000000 249.464645,513.000000 
	C248.995392,512.833374 249.059052,512.574158 248.976501,512.513306 
	C240.372025,506.174103 240.882294,497.074951 240.913406,487.759674 
	C241.091568,434.428955 241.000000,381.097321 241.000000,327.766022 
	C241.000000,325.771729 241.000000,323.777435 241.000000,321.000000 
	C239.097153,321.000000 237.351578,321.000000 235.606018,321.000000 
	C199.940704,321.000000 164.275116,320.918732 128.610245,321.043182 
	C115.772491,321.087982 109.769638,309.411163 113.961487,298.677521 
	C119.531227,284.415680 126.013008,270.507324 132.198700,256.489319 
	C142.529846,233.076874 152.899323,209.681168 163.324753,186.310547 
	C170.698624,169.780624 178.273804,153.340302 185.611069,136.794327 
	C195.519409,114.450409 205.233307,92.020294 215.132904,69.672470 
	C220.945496,56.550808 226.930008,43.504944 232.888580,30.448439 
	C236.268234,23.042913 239.426987,15.505571 243.351212,8.395155 
	C244.878571,5.627670 248.237000,3.870746 250.880676,1.326754 
	C255.024551,1.000000 259.049103,1.000000 263.536804,1.000002 
z"/>
</svg>